<svg xmlns:mydata="http://www.w3.org/2000/svg" mydata:contrastcolor="11111f" mydata:template="Contrast" mydata:presentation="2.5" mydata:layouttype="undefined" mydata:specialfontid="undefined" mydata:id1="304" mydata:id2="623" mydata:companyname="Smart Admin" mydata:companytagline="" version="1.1" xmlns="http://www.w3.org/2000/svg" xmlns:xlink="http://www.w3.org/1999/xlink" style="height: 324px;" viewBox="0 0 550 470"><g fill="#62b5e5" fill-rule="evenodd" stroke="none" stroke-width="1" stroke-linecap="butt" stroke-linejoin="miter" stroke-miterlimit="10" stroke-dasharray="" stroke-dashoffset="0" font-family="none" font-weight="none" font-size="none" text-anchor="none" style="mix-blend-mode: normal"><g data-paper-data="{&quot;isGlobalGroup&quot;:true,&quot;bounds&quot;:{&quot;x&quot;:64.99999999999999,&quot;y&quot;:155.55414160385635,&quot;width&quot;:420,&quot;height&quot;:158.8917167922873}}"><g data-paper-data="{&quot;isContainerElementsWrapper&quot;:true}" id="element-id-82940"><path d="M65,301.07654c0,3.69164 1.30531,6.84277 3.91593,9.45339c2.61073,2.61062 5.76214,3.91593 9.45422,3.91593h393.2597c3.69219,0 6.8436,-1.30503 9.45422,-3.9151c2.61062,-2.61173 3.91593,-5.76313 3.91593,-9.45422v-132.15308c0,-3.69164 -1.30503,-6.84277 -3.9151,-9.45339c-2.61117,-2.61062 -5.76286,-3.91593 -9.45505,-3.91593h-393.2597c-3.69203,0 -6.84338,1.30503 -9.45405,3.9151c-2.61073,2.61062 -3.9161,5.76203 -3.9161,9.45422zM78.37015,310.44852c-2.58808,0 -4.79714,-0.91516 -6.62718,-2.74547c-1.82998,-1.83031 -2.74497,-4.03915 -2.74497,-6.62651v-132.15308c0,-2.58791 0.91499,-4.79675 2.74497,-6.62651c1.83004,-1.83031 4.0391,-2.74547 6.62718,-2.74547h393.2597c2.58791,0 4.79703,0.91488 6.62734,2.74464c1.83031,1.83087 2.74547,4.03998 2.74547,6.62734v132.15308c0,2.58736 -0.91488,4.7962 -2.74464,6.62651c-1.83087,1.83031 -4.04026,2.74547 -6.62817,2.74547z" data-paper-data="{&quot;isOuterDoubleOutline&quot;:true}" fill="#62b5e5" id="element-id-14350"></path><path d="M74.21664,301.07654c0,2.29357 1.85953,4.15351 4.15351,4.15351h393.2597c2.2944,0 4.15351,-1.85994 4.15351,-4.15351v-132.15308c0,-2.29357 -1.85911,-4.15351 -4.15351,-4.15351h-393.2597c-2.29398,0 -4.15351,1.85994 -4.15351,4.15351zM230.58169,198.26718c0.79249,1.55591 3.62186,7.29938 8.51636,17.1731c5.48845,11.14719 8.37431,17.03189 8.6285,17.62584c1.58498,3.76225 1.24522,7.38411 -1.04668,10.83568c-2.29108,3.45157 -5.48845,5.17694 -9.6187,5.17694c-1.98039,0 -3.84781,-0.48098 -5.60226,-1.47117c-1.78186,-0.96195 -3.1683,-2.29108 -4.21498,-3.98903c-0.14205,-0.25419 -2.60342,-5.17694 -7.38494,-14.79647c-4.75245,9.61953 -7.21382,14.54227 -7.35587,14.79647c-2.26283,3.65011 -5.54494,5.46021 -9.87373,5.46021c-4.32879,0 -7.61006,-1.8101 -9.87373,-5.46021l-7.38411,-14.85295c-4.78152,9.64777 -7.27114,14.59876 -7.41235,14.85295c-1.55591,2.48961 -3.73484,4.15933 -6.56338,5.0083c-2.9141,0.84815 -5.71523,0.59395 -8.40338,-0.76425c-2.71557,-1.3582 -4.61123,-3.45157 -5.68616,-6.30918c-1.04668,-2.85762 -0.9902,-5.68699 0.16946,-8.48728c0.39624,-0.93371 5.17777,-10.66622 14.37281,-29.16927c2.12161,-4.27147 3.30952,-6.61987 3.56454,-7.04435c0.76342,-1.30171 1.72537,-2.40488 2.88586,-3.31035c2.74381,-2.20634 5.91294,-2.9141 9.50572,-2.12161c3.62103,0.79166 6.25269,2.82937 7.89333,6.13889l6.93138,13.94832c4.59627,-9.30386 6.88901,-13.94583 6.87738,-13.95081l-0.00249,0.00249c0.9902,-1.98039 2.40488,-3.5363 4.2723,-4.69596c1.81093,-1.104 3.79132,-1.69796 5.91294,-1.7262c2.17893,-0.02824 4.21581,0.50922 6.08323,1.66971c2.03688,1.21615 3.64927,3.05532 4.80893,5.46021zM295.76606,197.53118c-0.9902,-1.95215 -2.40488,-3.50806 -4.27147,-4.66772c-1.83917,-1.16049 -3.87606,-1.7262 -6.11148,-1.7262c-2.20634,0 -4.24323,0.56571 -6.0824,1.7262c-1.83917,1.15966 -3.25386,2.71557 -4.24406,4.66772l-0.02824,0.08473c-11.23192,22.57682 -17.06013,34.37528 -17.51286,35.42197c-1.15966,2.8003 -1.21615,5.65791 -0.16946,8.51553c1.07493,2.85762 2.97059,4.95098 5.68699,6.30918c2.63083,1.32995 5.3464,1.58415 8.17577,0.82073c2.82937,-0.76425 5.03655,-2.37664 6.64894,-4.83801c1.78186,-2.7164 4.30054,-4.07459 7.55357,-4.07459c3.25386,0 5.77172,1.3582 7.55441,4.07459c2.29108,3.47981 5.51669,5.23342 9.67519,5.23342c4.13108,0 7.32762,-1.72537 9.61953,-5.17694c2.29163,-3.45184 2.63111,-7.07315 1.01844,-10.86392c-0.45273,-1.07493 -6.28094,-12.87339 -17.48462,-35.42197zM144.88563,208.98989c1.21698,-1.89566 1.83917,-3.98986 1.83917,-6.28094c0.02824,-3.14088 -1.07493,-5.82821 -3.25303,-8.06363c-2.23542,-2.31932 -5.03655,-3.47981 -8.40338,-3.47981c-7.69504,-0.02824 -13.04219,-0.02824 -16.01278,0c-3.67793,0.02824 -7.04469,1.13225 -10.07193,3.33859c-3.05549,2.20718 -5.234,5.0922 -6.53538,8.68582c-1.30143,3.64955 -1.4429,7.27086 -0.42441,10.86392c1.01852,3.62103 3.05549,6.73367 6.1393,9.3645c1.07509,0.93371 2.29166,1.78269 3.67793,2.60259c-3.14039,0.05649 -5.7998,1.21698 -7.97823,3.45157c-2.20676,2.23542 -3.31018,4.95182 -3.31018,8.09187c0,3.19654 1.13167,5.91294 3.36675,8.14836c2.235,2.26283 4.92274,3.39425 8.09145,3.39425h17.93702c4.58298,0 8.60109,-1.21615 12.05266,-3.64927c2.46137,-1.72537 4.38528,-3.98903 5.82738,-6.79016c1.44293,-2.80113 2.15069,-5.7144 2.17893,-8.7988c0.02824,-3.25303 -0.736,-6.28094 -2.29191,-9.08124c-1.72537,-3.0844 -4.27147,-5.60226 -7.63831,-7.61089c2.00864,-0.93371 3.59279,-2.34839 4.80893,-4.18674zM376.17138,212.80862c0,3.45157 -0.76342,6.70543 -2.31932,9.78899c-1.49942,2.97059 -3.56537,5.46104 -6.22445,7.46967c0.59395,0.59395 0.87722,0.87639 0.87722,0.84815c2.06513,2.06596 3.08357,4.58381 3.08357,7.55441c0,2.94235 -1.01844,5.46021 -3.08357,7.52533c-2.06513,2.06513 -4.58381,3.11181 -7.49709,3.11181c-2.74464,0 -5.14952,-0.93288 -7.15816,-2.82854c-1.15966,-1.104 -5.14952,-5.06479 -11.99617,-11.85412v4.07376c0,2.9141 -1.01844,5.43196 -3.08357,7.49709c-2.06513,2.06513 -4.5265,3.11181 -7.4406,3.11181c-2.82937,0 -5.2625,-0.9902 -7.32762,-2.97059c-2.00864,-1.98039 -3.08357,-4.38528 -3.19737,-7.18557c-0.05649,-0.14177 -0.08473,-12.53363 -0.08473,-37.17558c0,-2.85762 0.9902,-5.29074 2.97059,-7.35587c1.98039,-2.06513 4.38528,-3.16913 7.21465,-3.25386h23.7938c5.91294,0 10.9769,2.12244 15.19271,6.33743c4.18674,4.24406 6.28011,9.33626 6.28011,15.30569zM393.43004,191.25024c-3.22562,0.05732 -5.97026,1.24522 -8.20484,3.56537c-2.26339,2.31987 -3.39508,5.09248 -3.39508,8.31782c0,3.30952 1.15966,6.11064 3.47981,8.45904c2.29191,2.29191 5.03572,3.45157 8.23309,3.45157h10.24173v22.46385c0,3.25303 1.15966,5.99767 3.45157,8.23309c2.29191,2.23459 5.0922,3.366 8.4308,3.366c3.25386,0 6.02591,-1.07493 8.28958,-3.22479c2.34839,-2.23542 3.5363,-5.12128 3.5363,-8.60109v-22.29355h10.12875c3.25386,0 6.05416,-1.16049 8.34606,-3.50806c2.32015,-2.32015 3.47981,-5.12128 3.47981,-8.40255c0,-3.2821 -1.15966,-6.08323 -3.47981,-8.43163c-2.29191,-2.31932 -5.0922,-3.47981 -8.34606,-3.47981c-29.36698,0 -44.10696,0.02824 -44.19169,0.08473zM202.6294,246.64561c3.42332,0 5.9985,-1.4421 7.78036,-4.29971c0.19826,-0.28299 4.95126,-9.84576 14.259,-28.6883c1.61322,-2.74381 3.59362,-3.98903 5.9985,-3.73401c2.07592,0.19605 3.59611,1.22778 4.53148,3.09353l-6.79514,-13.67502l-0.76425,-1.47117c-0.93371,-1.21698 -1.69712,-2.06513 -2.29108,-2.48961c-2.20718,-1.64147 -4.69679,-2.17893 -7.44143,-1.58415c-2.8003,0.6222 -4.86542,2.23459 -6.16713,4.83718l-9.11031,18.36184l-9.10948,-18.36184c-1.30171,-2.60259 -3.36684,-4.21498 -6.16796,-4.83718c-2.74381,-0.59478 -5.23425,-0.05732 -7.4406,1.58415c-0.59395,0.42449 -1.3582,1.27264 -2.29191,2.48961l-0.76342,1.47117l-6.79597,13.67502c0.9362,-1.86576 2.45556,-2.89749 4.53231,-3.09353c2.40488,-0.25503 4.38528,0.9902 5.99767,3.73401c9.30829,18.84254 14.06129,28.40531 14.259,28.6883c1.78269,2.85762 4.35703,4.29971 7.78036,4.29971zM139.14299,243.10931c0.50922,-1.04668 0.76342,-2.20634 0.73517,-3.47981c-0.05649,-3.02708 -1.3582,-5.0922 -3.9043,-6.13889c-14.28716,-5.85645 -21.75617,-8.99733 -22.40686,-9.39358c-1.44293,-0.8199 -2.71606,-1.69712 -3.79116,-2.63083c-2.65941,-2.23459 -4.44176,-4.92274 -5.31882,-8.06279c-0.87706,-3.11264 -0.76391,-6.22445 0.36775,-9.33626c1.10342,-3.02791 2.9141,-5.51752 5.48862,-7.41319c2.5746,-1.89483 5.37547,-2.88503 8.45929,-2.94235c-1.38628,0.19854 -2.54627,0.84898 -3.47989,1.89566c-0.90538,0.9902 -1.47117,2.17893 -1.66921,3.56537c-0.19804,1.44293 -0.02833,2.8003 0.56579,4.07376c0.67902,1.44293 1.75411,2.57435 3.22528,3.42332c1.35803,0.76342 7.52566,3.1683 18.47448,7.1864c5.17777,2.23459 8.62933,5.46021 10.38295,9.67519c1.49942,3.53713 1.64147,7.27114 0.45273,11.20368c-1.55591,5.09303 -4.78152,8.60109 -9.67602,10.55324c0.87722,-0.368 1.55674,-1.104 2.0942,-2.17893zM425.00337,237.53613c0,2.57435 -0.90547,4.75328 -2.74381,6.47865c-1.78269,1.7262 -3.98986,2.57435 -6.59245,2.57435c-2.60259,0 -4.80977,-0.87639 -6.61987,-2.60259c-1.83917,-1.75444 -2.77288,-3.9043 -2.77288,-6.47865v-24.048c0,-7.86509 -1.47117,-13.41085 -4.41352,-16.63564c-1.81093,-2.00864 -4.13108,-3.02708 -6.93138,-3.11264c20.82404,0.5358 34.77153,0.56571 41.8433,0.03489c-2.70809,0.21432 -5.02741,1.31583 -6.95962,3.27546c-3.19737,3.25386 -4.80977,8.51636 -4.80977,15.78666zM323.20913,236.26267c1.55674,-2.37664 4.30054,-3.73401 8.23309,-4.07376c2.15041,-0.17002 9.90252,-0.25503 23.25634,-0.25503c5.23342,0 9.70343,-1.86659 13.41002,-5.62967c3.70659,-3.73484 5.57318,-8.23309 5.57318,-13.49559c0,-4.7242 -1.52766,-8.88353 -4.61123,-12.47632c-3.02708,-3.5363 -6.84665,-5.68699 -11.40139,-6.42216c3.08357,2.06513 5.0922,4.86625 5.96943,8.40255c0.84898,3.42332 0.45273,6.61987 -1.15966,9.59129c-1.7262,3.1683 -4.47084,4.8945 -8.20484,5.14869l-21.21945,0.02824c-2.63083,0 -4.63947,0.28327 -6.05416,0.82073c-2.20634,0.87722 -3.47981,2.51786 -3.79132,4.86625zM301.4248,246.56088c-1.78269,-0.25419 -3.36684,-0.96195 -4.72503,-2.12161c-0.53719,-0.48125 -1.1029,-1.13197 -1.69712,-1.95215c-0.82073,-1.15966 -1.47117,-2.00864 -1.89566,-2.5461c-4.92274,-5.77172 -10.75095,-9.50656 -17.45637,-11.20368c-3.14005,-0.76425 -5.96943,-0.90547 -8.51553,-0.39624c-2.68815,0.53746 -4.83801,1.7262 -6.39391,3.62186c4.75328,-9.73251 7.41235,-15.16447 7.97806,-16.26847c1.61239,-3.14005 4.38528,-4.78069 8.28958,-4.95098c1.24522,-0.02824 2.74464,0.05649 4.49825,0.31151c2.23542,0.33976 3.36684,0.50922 3.42332,0.50922c3.05615,0.19771 5.54577,-0.70776 7.49792,-2.7164c1.95215,-2.00864 2.8003,-4.5265 2.48961,-7.52533c10.35442,20.85118 15.7299,31.74362 16.12642,32.67733c0.93288,2.20634 0.96195,4.44176 0.14122,6.67635c-0.82073,2.26366 -2.32015,3.93254 -4.49825,5.00747c-1.66971,0.82073 -3.42332,1.13225 -5.2625,0.87722zM355.80173,211.67721c-0.31124,-0.33948 -0.70748,-0.50922 -1.18873,-0.50922h-11.51436l0.02824,3.42332c0,0 1.86742,0 5.6305,-0.02824h5.65791c0.6222,0 1.10317,-0.16946 1.44293,-0.53746c0.31151,-0.31151 0.45273,-0.70776 0.45273,-1.15966c0,-0.45301 -0.16974,-0.84925 -0.50922,-1.18873zM216.81114,278.89347h0.76674c0.13956,0 0.25586,-0.09304 0.25586,-0.20934l0.55823,-3.46237c0.02326,-0.13956 0.13873,-0.2326 0.25503,-0.2326h2.20801c0.13956,0 0.25503,0.09304 0.25503,0.2326l0.55823,3.46237c0.02326,0.1163 0.13956,0.20934 0.25586,0.20934h0.79c0.13956,0 0.27829,-0.13956 0.25503,-0.30238l-2.53281,-15.70858c-0.02326,-0.13956 -0.1163,-0.2326 -0.25503,-0.2326h-0.86061c-0.11547,0 -0.23177,0.09304 -0.25503,0.2326l-2.50955,15.70858c-0.02326,0.16282 0.09221,0.30238 0.25503,0.30238zM247.68834,262.64992h-0.72022c-0.13956,0 -0.25503,0.1163 -0.25503,0.25586v15.73184c0,0.13956 0.11547,0.25586 0.25503,0.25586h0.72022c2.69563,0 4.88037,-3.62518 4.88037,-8.11014c0,-4.48496 -2.18475,-8.1334 -4.88037,-8.1334zM276.76541,278.89347c-0.13956,0 -0.25586,-0.1163 -0.25586,-0.25586v-15.73184c0,-0.13956 0.1163,-0.25586 0.25586,-0.25586h0.83652c0.1163,0 0.2326,0.09304 0.25586,0.20934l1.97541,7.85429c0.02326,0.04652 0.04652,0.09304 0.09304,0.09304c0.04652,0 0.09221,-0.04652 0.09221,-0.09304l1.95215,-7.85429c0.04652,-0.1163 0.13956,-0.20934 0.25586,-0.20934h0.83652c0.16282,0 0.27912,0.1163 0.27912,0.25586v15.73184c0,0.13956 -0.1163,0.25586 -0.27912,0.25586h-0.76674c-0.13956,0 -0.25586,-0.1163 -0.25586,-0.25586v-9.99169c0,-0.06978 -0.04652,-0.09304 -0.09304,-0.09304c-0.04652,0 -0.09304,0.02326 -0.1163,0.06978l-1.37066,5.52998c-0.02326,0.1163 -0.13956,0.18608 -0.25586,0.18608h-0.5574c-0.13956,0 -0.2326,-0.06978 -0.25586,-0.18608l-1.39392,-5.52998c0,-0.04652 -0.04652,-0.06978 -0.09304,-0.06978c-0.04652,0 -0.09304,0.02326 -0.09304,0.09304v9.99169c0,0.13956 -0.1163,0.25586 -0.25586,0.25586zM305.91475,278.63761v-15.73184c0,-0.13956 -0.1163,-0.25586 -0.25586,-0.25586h-0.79c-0.13956,0 -0.25586,0.1163 -0.25586,0.25586v15.73184c0,0.13956 0.1163,0.25586 0.25586,0.25586h0.79c0.13956,0 0.25586,-0.1163 0.25586,-0.25586zM327.9865,278.89347h-0.79c-0.13956,0 -0.25586,-0.1163 -0.25586,-0.25586v-15.73184c0,-0.13956 0.1163,-0.25586 0.25586,-0.25586h0.79c0.13956,0 0.25586,0.1163 0.25586,0.25586c0.1163,2.43977 1.64977,4.18259 3.04369,5.71689c0.2326,0.27829 0.46519,0.53414 0.67453,0.79c0.02326,0.02326 0.04652,0.02326 0.09304,0.02326c0.04569,0 0.09221,-0.02326 0.09221,-0.06978v-6.55341c0,-0.09304 0.06978,-0.16282 0.16282,-0.16282h0.85978c0.16282,0 0.27912,0.1163 0.27912,0.25586v15.73184c0,0.13956 -0.1163,0.25586 -0.27912,0.25586h-0.76674c-0.13956,0 -0.25586,-0.1163 -0.25586,-0.25586v-3.90347c0,-0.16282 -0.16199,-0.27912 -0.3248,-0.25586c-0.1163,0.02326 -0.20934,0.02326 -0.32564,0.02326c-0.41784,0 -0.83652,-0.1163 -1.16215,-0.37215c-0.11547,-0.09221 -0.13873,-0.27829 -0.02326,-0.39458l0.55823,-0.5574c0.04652,-0.04652 0.1163,-0.06978 0.18608,-0.06978c0.04652,0 0.09304,0 0.13956,0.02326c0.09221,0.04652 0.18525,0.06895 0.30154,0.06895c0.16282,0 0.32564,-0.06895 0.44193,-0.18525c0.13873,-0.1163 0.20851,-0.27912 0.20851,-0.46519v-0.16282c0,-0.83652 -0.85978,-1.78933 -1.83585,-2.90413c-0.53414,-0.58149 -1.09154,-1.20867 -1.60326,-1.90563c-0.04652,-0.06978 -0.13956,-0.1163 -0.20851,-0.1163c-0.13956,0 -0.25586,0.09304 -0.25586,0.25586v10.92124c0,0.13956 -0.1163,0.25586 -0.25586,0.25586zM248.01398,277.29021v-13.03621c0,-0.13956 0.1163,-0.25586 0.25586,-0.25586c0.02326,0 0.06978,0 0.09304,0.02326c1.27762,0.4411 2.90413,3.18325 2.90413,6.76192c0,3.55541 -1.62651,6.29755 -2.90413,6.73949c-0.02326,0.02326 -0.06978,0.02326 -0.09304,0.02326c-0.13956,0 -0.25586,-0.1163 -0.25586,-0.25586zM218.69352,273.38591l0.92956,-5.87888c0.02326,-0.06978 0.06978,-0.1163 0.13956,-0.1163c0.04652,0 0.1163,0.04652 0.1163,0.1163l0.95282,5.87888c0.02326,0.16282 -0.09304,0.30238 -0.25586,0.30238h-1.62651c-0.16282,0 -0.27912,-0.13956 -0.25586,-0.30238z" data-paper-data="{&quot;isBaseLogoContainer&quot;:true}" fill="#62b5e5" id="element-id-914"></path></g></g></g><g class="watermark-group" style="opacity:0.040000010281801224"><path class="watermark-path" d="M129.52,370.3a11.88,11.88,0,0,1,2.58,5.58,12,12,0,0,1,.11,3,11.81,11.81,0,0,1-.64,2.93,12.34,12.34,0,0,1-1.41,2.72,11.65,11.65,0,0,1-2.13,2.32,12,12,0,0,1-2.64,1.69,13,13,0,0,1-2.91.9,12.47,12.47,0,0,1-3,.12,12.17,12.17,0,0,1-2.93-.64,11.8,11.8,0,0,1-2.72-1.38,12.19,12.19,0,0,1-4-4.79,11.85,11.85,0,0,1-.89-2.92,12.14,12.14,0,0,1-.13-3,11.54,11.54,0,0,1,.64-2.92,11.67,11.67,0,0,1,3.5-5,11.44,11.44,0,0,1,2.67-1.69,11.64,11.64,0,0,1,2.92-.91,10.71,10.71,0,0,1,3-.12,11.68,11.68,0,0,1,5.66,2,11.7,11.7,0,0,1,2.34,2.12m-1.4,8.76a13,13,0,0,1-1.22,2.32,9.68,9.68,0,0,1-1.81,2,7.44,7.44,0,0,1-2.38,1.37,6.17,6.17,0,0,1-5.11-.46,8.73,8.73,0,0,1-3.85-4.58,6.69,6.69,0,0,1-.34-2.66,6.09,6.09,0,0,1,.77-2.47,7.15,7.15,0,0,1,1.75-2.11,9.58,9.58,0,0,1,1.09-.81,8.23,8.23,0,0,1,1.12-.63,8.14,8.14,0,0,1,1.19-.46,12.71,12.71,0,0,1,1.32-.37l2,2.38a12.83,12.83,0,0,0-1.56.17,7.86,7.86,0,0,0-1.23.32,4.5,4.5,0,0,0-1,.49,6.41,6.41,0,0,0-.93.67,4.49,4.49,0,0,0-1.15,1.39,3.87,3.87,0,0,0-.45,1.58,4.12,4.12,0,0,0,.26,1.63,6.11,6.11,0,0,0,2.36,2.82,4.43,4.43,0,0,0,1.57.53,3.91,3.91,0,0,0,1.62-.17,4.71,4.71,0,0,0,1.57-.89,10.5,10.5,0,0,0,.83-.79,5.71,5.71,0,0,0,.65-.93,10.13,10.13,0,0,0,.54-1.14,12.24,12.24,0,0,0,.44-1.49l2,2.33m-14.46,4.55a8.86,8.86,0,0,0,2.78,2.22,9,9,0,0,0,3.29.94,9.15,9.15,0,0,0,3.39-.37,8.68,8.68,0,0,0,3.11-1.69,8.8,8.8,0,0,0,2.22-2.78,9.15,9.15,0,0,0,1-3.29,8.95,8.95,0,0,0-4.83-8.76,9,9,0,0,0-6.73-.57,9,9,0,0,0-5.33,4.47,8.94,8.94,0,0,0-.57,6.71,8.76,8.76,0,0,0,1.7,3.12"></path><path class="watermark-path" d="M147,349c-.48.12-1.09.31-1.82.57a24.37,24.37,0,0,0-2.4,1A28.35,28.35,0,0,0,140,352a20.72,20.72,0,0,0-2.71,1.94c-.7.59-1.28,1.11-1.74,1.57a15.07,15.07,0,0,0-1.1,1.22,4.09,4.09,0,0,0-.59.92,2.32,2.32,0,0,0-.22.64,1.16,1.16,0,0,0,0,.47,1.83,1.83,0,0,0,.18.29,1.15,1.15,0,0,0,1,.37,5.54,5.54,0,0,0,1.51-.38q.87-.35,1.95-.9l2.26-1.18q1.2-.65,2.49-1.29c.87-.44,1.73-.83,2.59-1.17a18.94,18.94,0,0,1,2.6-.81,9.27,9.27,0,0,1,2.46-.29,6.25,6.25,0,0,1,2.24.49,5.12,5.12,0,0,1,1.89,1.47,6.35,6.35,0,0,1,1.41,2.61,6,6,0,0,1,.09,2.6,8.3,8.3,0,0,1-.9,2.52,17.79,17.79,0,0,1-1.62,2.37,23.92,23.92,0,0,1-2,2.15c-.72.67-1.41,1.29-2.09,1.87a33.79,33.79,0,0,1-5.33,3.7,32.29,32.29,0,0,1-4.91,2.28l-3.61-4.3a21.38,21.38,0,0,0,5.39-1.87,27.2,27.2,0,0,0,5.4-3.56,21.59,21.59,0,0,0,2.38-2.27,8.67,8.67,0,0,0,1.18-1.7,2.32,2.32,0,0,0,.27-1.19,1.34,1.34,0,0,0-.28-.74,1.21,1.21,0,0,0-1-.42,4.32,4.32,0,0,0-1.55.34,15.77,15.77,0,0,0-2,.88c-.72.37-1.48.77-2.27,1.21l-2.45,1.3c-.85.45-1.7.85-2.56,1.21a22.37,22.37,0,0,1-2.54.86,10,10,0,0,1-2.43.32,5.76,5.76,0,0,1-2.2-.45,5,5,0,0,1-1.89-1.45,6.12,6.12,0,0,1-1.31-2.41,6,6,0,0,1-.1-2.41,8.28,8.28,0,0,1,.81-2.38,14.06,14.06,0,0,1,1.49-2.24,22.37,22.37,0,0,1,1.85-2.05q1-1,2-1.77c.7-.59,1.44-1.15,2.23-1.7s1.62-1.06,2.44-1.53,1.63-.91,2.43-1.3,1.58-.75,2.3-1L147,349"></path><path class="watermark-path" d="M186.76,337.57l-10.6-12.63,3.92,18.24-4.66,3.91-17.27-7,10.6,12.63-4.86,4.07-15.09-18,6.59-5.54,18.69,7.52-4.15-19.71,6.57-5.52,15.09,18-4.83,4.05"></path><path class="watermark-path" d="M208.84,313.24l-10,8.42,1.16,4.82L194.56,331l-5.68-25.89,5.42-4.55,24.51,10.09-5.42,4.55-4.55-2m-11.23,3.45,6.57-5.52-8.83-3.87,2.26,9.39"></path><path class="watermark-path" d="M227.49,281.38c-.48.12-1.09.31-1.82.57a24.37,24.37,0,0,0-2.4,1,26.11,26.11,0,0,0-2.7,1.47,20.72,20.72,0,0,0-2.71,1.94c-.7.59-1.28,1.11-1.74,1.57a13.39,13.39,0,0,0-1.1,1.22,4.29,4.29,0,0,0-.59.91,2.48,2.48,0,0,0-.22.65,1.16,1.16,0,0,0,0,.47,1.83,1.83,0,0,0,.18.29,1.15,1.15,0,0,0,1,.37,5.54,5.54,0,0,0,1.51-.38q.87-.34,2-.9l2.26-1.18q1.2-.64,2.49-1.29c.87-.44,1.73-.83,2.59-1.17a18.94,18.94,0,0,1,2.6-.81,9.27,9.27,0,0,1,2.46-.29,6.08,6.08,0,0,1,2.24.49,5.09,5.09,0,0,1,1.89,1.46,6.47,6.47,0,0,1,1.41,2.61,6.07,6.07,0,0,1,.09,2.61,8.3,8.3,0,0,1-.9,2.52,16.32,16.32,0,0,1-1.63,2.36,21.41,21.41,0,0,1-2,2.16c-.72.67-1.41,1.29-2.1,1.86a33.36,33.36,0,0,1-5.32,3.71,31.92,31.92,0,0,1-4.92,2.28l-3.6-4.3a21.38,21.38,0,0,0,5.39-1.87,27.2,27.2,0,0,0,5.4-3.56,21.59,21.59,0,0,0,2.38-2.27,8.67,8.67,0,0,0,1.18-1.7A2.32,2.32,0,0,0,231,293a1.34,1.34,0,0,0-.28-.74,1.21,1.21,0,0,0-1-.42,4.32,4.32,0,0,0-1.55.34,16.54,16.54,0,0,0-2,.88c-.71.37-1.47.77-2.26,1.21l-2.46,1.3c-.84.44-1.7.85-2.55,1.21a24.53,24.53,0,0,1-2.54.86A10,10,0,0,1,214,298a5.76,5.76,0,0,1-2.2-.45,5,5,0,0,1-1.89-1.45,6.12,6.12,0,0,1-1.31-2.41,5.78,5.78,0,0,1-.1-2.41,8,8,0,0,1,.81-2.38,14.61,14.61,0,0,1,1.49-2.25,22.26,22.26,0,0,1,1.85-2q1-1,2-1.77c.7-.59,1.44-1.15,2.23-1.7s1.62-1.06,2.44-1.53,1.63-.91,2.43-1.31,1.58-.74,2.3-1l3.5,4.16"></path><path class="watermark-path" d="M261.64,274.74l-6.29-7.5L243,277.61l6.3,7.5-4.86,4.07-15.09-18,4.85-4.08,5.49,6.55L252,263.3l-5.49-6.55,4.86-4.07,15.09,18-4.86,4.08"></path><path class="watermark-path" d="M272.18,265.9l-15.09-18,4.86-4.08,15.09,18-4.86,4.08"></path><path class="watermark-path" d="M299.65,242.85l-22.51-2.18L287.51,253l-4.85,4.08-15.1-18,5.28-4.43,22.56,2.22L285,224.5l4.83-4.06,15.09,18-5.26,4.42"></path><path class="watermark-path" d="M306.68,205.52a31.88,31.88,0,0,1,5.29-3.66,34.48,34.48,0,0,1,5.14-2.35l3.69,4.39a20.77,20.77,0,0,0-2.37.61,20.47,20.47,0,0,0-2.61,1,25.12,25.12,0,0,0-2.76,1.49,23.9,23.9,0,0,0-2.8,2,20.42,20.42,0,0,0-2.8,2.77,12.77,12.77,0,0,0-1.64,2.52,7,7,0,0,0-.68,2.24,6,6,0,0,0,.66,3.64,8.16,8.16,0,0,0,.94,1.38,9.12,9.12,0,0,0,1.08,1.07,6.39,6.39,0,0,0,1.47.91,6.73,6.73,0,0,0,1.88.48,6.54,6.54,0,0,0,2.28-.18,11.67,11.67,0,0,0,2.74-1.07,19.38,19.38,0,0,0,3.18-2.22c.57-.48,1.06-.92,1.46-1.31a14.57,14.57,0,0,0,1-1.13,11.46,11.46,0,0,0,.81-1.05l.74-1.09-1.82-2.17-5.45,4.57-3.31-3.94,10.31-8.65,7.71,9.19a29,29,0,0,1-1.67,2.43q-1,1.26-2.1,2.52c-.74.84-1.5,1.65-2.3,2.44s-1.58,1.5-2.33,2.14a31,31,0,0,1-3.59,2.61,22.55,22.55,0,0,1-3.64,1.83,15.64,15.64,0,0,1-3.63.89,10.72,10.72,0,0,1-3.49-.15,10.45,10.45,0,0,1-3.28-1.33,12.54,12.54,0,0,1-3-2.67,12,12,0,0,1-2.08-3.44,10.45,10.45,0,0,1-.71-3.5,11.14,11.14,0,0,1,.51-3.51,15.72,15.72,0,0,1,1.56-3.43,21.62,21.62,0,0,1,2.42-3.28,30.3,30.3,0,0,1,3.15-3"></path><path class="watermark-path" d="M336.91,211.59l-15.1-18,4.86-4.08,11.79,14,13.13-11,3.31,3.94-18,15.1"></path><path class="watermark-path" d="M374.54,164.71a12.28,12.28,0,0,1,2.59,4.81,10.44,10.44,0,0,1,0,5,14.62,14.62,0,0,1-2.33,5,25.55,25.55,0,0,1-4.56,4.85,26.07,26.07,0,0,1-5.6,3.67,14.79,14.79,0,0,1-5.38,1.43,10.43,10.43,0,0,1-4.94-.89,13.24,13.24,0,0,1-6.87-8.18,10.48,10.48,0,0,1,0-5,14.51,14.51,0,0,1,2.36-5,25.23,25.23,0,0,1,4.57-4.89,25,25,0,0,1,5.59-3.64,14.45,14.45,0,0,1,5.35-1.43,10.31,10.31,0,0,1,4.93.92,12.22,12.22,0,0,1,4.28,3.38m-4.91,4.11a8.36,8.36,0,0,0-2-1.72,5.5,5.5,0,0,0-2.65-.85,7.72,7.72,0,0,0-3.32.57,14.49,14.49,0,0,0-4,2.52,16.72,16.72,0,0,0-2.38,2.4,10.15,10.15,0,0,0-1.39,2.24,6.71,6.71,0,0,0-.56,2.1,5.69,5.69,0,0,0,.1,1.9,6.21,6.21,0,0,0,.61,1.69,9.85,9.85,0,0,0,1,1.44,10.48,10.48,0,0,0,1.26,1.23,6.67,6.67,0,0,0,1.57.92,6.1,6.1,0,0,0,1.85.41,6.8,6.8,0,0,0,2.15-.2,11.06,11.06,0,0,0,2.45-1,17.67,17.67,0,0,0,2.77-1.94,14.39,14.39,0,0,0,3.18-3.52,7.74,7.74,0,0,0,1.14-3.17,5.54,5.54,0,0,0-.37-2.74,8.52,8.52,0,0,0-1.36-2.3"></path><path class="watermark-path" d="M382.66,141.76A32.3,32.3,0,0,1,388,138.1a34.12,34.12,0,0,1,5.15-2.35l3.69,4.4a19.62,19.62,0,0,0-2.37.6,22.08,22.08,0,0,0-2.61,1,26,26,0,0,0-2.77,1.49,23.9,23.9,0,0,0-2.8,2,21,21,0,0,0-2.8,2.78,13.19,13.19,0,0,0-1.64,2.51,7.29,7.29,0,0,0-.68,2.24,6.36,6.36,0,0,0,.06,2,5.8,5.8,0,0,0,.61,1.68,8.12,8.12,0,0,0,.93,1.38,9.16,9.16,0,0,0,1.08,1.08,6.56,6.56,0,0,0,1.48.9,6,6,0,0,0,1.87.48,6.76,6.76,0,0,0,2.28-.17,12,12,0,0,0,2.74-1.08,18.57,18.57,0,0,0,3.18-2.22c.58-.48,1.06-.92,1.46-1.31s.75-.77,1.05-1.12.57-.72.81-1.06l.73-1.09-1.82-2.17-5.45,4.57-3.3-3.94,10.3-8.65,7.71,9.19a29,29,0,0,1-1.67,2.43q-1,1.26-2.1,2.52c-.73.84-1.5,1.66-2.3,2.44s-1.57,1.5-2.33,2.14a31,31,0,0,1-3.59,2.61,22.15,22.15,0,0,1-3.64,1.83,15.56,15.56,0,0,1-3.62.89,11,11,0,0,1-3.49-.14,10.84,10.84,0,0,1-3.28-1.33,12.82,12.82,0,0,1-3-2.68,12.12,12.12,0,0,1-2.08-3.43A10.71,10.71,0,0,1,375,155a11.18,11.18,0,0,1,.51-3.51,15.51,15.51,0,0,1,1.57-3.43,21.44,21.44,0,0,1,2.42-3.28,30.19,30.19,0,0,1,3.14-3"></path><path class="watermark-path" d="M428.63,119.31a12.26,12.26,0,0,1,2.59,4.82,10.44,10.44,0,0,1,0,5,14.53,14.53,0,0,1-2.34,5,25.29,25.29,0,0,1-4.56,4.86,26,26,0,0,1-5.59,3.67,14.84,14.84,0,0,1-5.38,1.43,10.61,10.61,0,0,1-4.95-.89,12.15,12.15,0,0,1-4.3-3.37,12,12,0,0,1-2.56-4.81,10.48,10.48,0,0,1,0-5,14.39,14.39,0,0,1,2.35-5,27.89,27.89,0,0,1,10.16-8.53,14.49,14.49,0,0,1,5.36-1.43,10.27,10.27,0,0,1,4.92.92,12.21,12.21,0,0,1,4.28,3.37m-4.91,4.12a8.17,8.17,0,0,0-2-1.72,5.58,5.58,0,0,0-2.65-.86,7.86,7.86,0,0,0-3.31.58,14.49,14.49,0,0,0-4,2.52,16.21,16.21,0,0,0-2.38,2.4,9.85,9.85,0,0,0-1.4,2.24,7,7,0,0,0-.56,2.1,6,6,0,0,0,.1,1.9,6.23,6.23,0,0,0,.62,1.69,8.49,8.49,0,0,0,1,1.44,9.18,9.18,0,0,0,1.26,1.23,6.67,6.67,0,0,0,1.57.92,6,6,0,0,0,1.84.41,6.86,6.86,0,0,0,2.16-.2,11.26,11.26,0,0,0,2.45-1,17.62,17.62,0,0,0,2.76-1.94,14.67,14.67,0,0,0,3.19-3.52,7.71,7.71,0,0,0,1.13-3.17,5.53,5.53,0,0,0-.36-2.74,8.55,8.55,0,0,0-1.37-2.3"></path></g><rect data-element-id="element-id-82940" stroke-width="2" fill="transparent" class="invisible-element-box individual-element" x="65" y="156" width="420" height="159"></rect><rect data-element-id="element-id-14350" stroke-width="2" fill="transparent" class="invisible-element-box individual-element" x="65" y="156" width="420" height="159"></rect><rect data-element-id="element-id-914" stroke-width="2" fill="transparent" class="invisible-element-box individual-element" x="74" y="165" width="402" height="140"></rect></svg>
